# xmcd
#
# Track frame offsets:
#	150
#	20967
#	41260
#	59864
#	80905
#	118710
#	137577
#	156018
#	175035
#	192365
#
# Disc length: 2861 seconds
#
# Revision: 1
# Processed by: cddbd v1.5.2PL0 Copyright (c) Steve Scherf et al.
# Submitted via: EasyCDDAExtractor 16.0.9.1
#
DISCID=8c0b2b0a
DTITLE=Giovanni Rios - 3G
DYEAR=2010
DGENRE=Latino, Music
TTITLE0=01. El Amor
TTITLE1=02. Ayer Te Vi
TTITLE2=03. Me Gusta, Me Gusta
TTITLE3=04. Algo Grande
TTITLE4=05. Medley: El Muro, El Culto y El Cristiano
TTITLE5=06. Encendio
TTITLE6=07. El Burro
TTITLE7=08. Me Salvaste
TTITLE8=09. Nadie Puede Contra Mi
TTITLE9=10. Tengo Un Dios Que Todo Lo Puede
EXTD=
EXTT0=
EXTT1=
EXTT2=
EXTT3=
EXTT4=
EXTT5=
EXTT6=
EXTT7=
EXTT8=
EXTT9=
PLAYORDER=
